<svg aria-hidden="true" style="position: absolute; width: 0; height: 0; overflow: hidden;" version="1.1" xmlns="http://www.w3.org/2000/svg" xmlns:xlink="http://www.w3.org/1999/xlink">
<defs>
<symbol id="icon-Line" viewBox="0 0 1 32">
<path stroke-linejoin="miter" stroke-linecap="butt" stroke-miterlimit="4" stroke-width="0.5614" d="M0.561 0c0 12.497 0 19.503 0 32"></path>
</symbol>
<symbol id="icon-fb" viewBox="0 0 32 32">
<path fill="#f5efdb" style="fill: var(--color1, #f5efdb)" d="M20.16 7.093h2.507v-4.24c-1.214-0.126-2.433-0.188-3.653-0.187-3.627 0-6.107 2.213-6.107 6.267v3.493h-4.093v4.747h4.093v12.16h4.907v-12.16h4.080l0.613-4.747h-4.693v-3.027c0-1.4 0.373-2.307 2.347-2.307z"></path>
</symbol>
<symbol id="icon-g" viewBox="0 0 30 32">
<path d="M17.639 32c-3.623 0-6.769-0.708-9.437-2.123-2.635-1.416-4.661-3.342-6.077-5.778-1.416-2.469-2.125-5.235-2.125-8.296 0-3.029 0.791-5.745 2.372-8.148 1.614-2.403 3.788-4.28 6.522-5.63 2.767-1.35 5.847-2.025 9.24-2.025 1.548 0 3.080 0.148 4.595 0.444 1.515 0.263 2.734 0.625 3.656 1.086 0.264 0.165 0.428 0.313 0.494 0.444s0.115 0.362 0.148 0.691l0.445 6.123c0 0.132-0.082 0.214-0.247 0.247s-0.28 0-0.346-0.099c-0.988-2.469-2.405-4.379-4.249-5.728s-4.019-2.025-6.522-2.025c-3.492 0-6.209 1.152-8.152 3.457s-2.915 5.416-2.915 9.333c0 3.358 0.609 6.337 1.828 8.938 1.219 2.568 2.899 4.56 5.040 5.975s4.562 2.123 7.263 2.123c1.285 0 2.273-0.165 2.965-0.494s1.186-0.905 1.482-1.728c0.296-0.823 0.445-2.025 0.445-3.605 0-1.646-0.148-2.815-0.445-3.506-0.264-0.724-0.774-1.202-1.532-1.432s-2.009-0.346-3.755-0.346c-0.165 0-0.247-0.132-0.247-0.395s0.066-0.395 0.198-0.395c2.569 0.165 4.743 0.247 6.522 0.247 1.647 0 3.36-0.049 5.139-0.148 0.132 0 0.198 0.115 0.198 0.346 0.033 0.23-0.017 0.346-0.148 0.346-0.494-0.033-0.84 0.049-1.038 0.247-0.198 0.165-0.329 0.494-0.395 0.988s-0.099 1.333-0.099 2.519v2.025c0 1.481 0.049 2.519 0.148 3.111s0.148 1.004 0.148 1.235c0 0.197-0.033 0.329-0.099 0.395-0.033 0.066-0.148 0.132-0.346 0.198-4.084 0.922-7.642 1.383-10.672 1.383z"></path>
</symbol>
<symbol id="icon-inst" viewBox="0 0 32 32">
<path fill="#fff" style="fill: var(--color2, #fff)" d="M23.12 7.28c-0.316 0-0.626 0.094-0.889 0.27s-0.468 0.426-0.589 0.718c-0.121 0.292-0.153 0.614-0.091 0.925s0.214 0.595 0.438 0.819 0.509 0.376 0.819 0.438c0.31 0.062 0.632 0.030 0.924-0.091s0.542-0.326 0.718-0.589c0.176-0.263 0.27-0.572 0.27-0.889 0-0.424-0.169-0.831-0.469-1.131s-0.707-0.469-1.131-0.469zM29.253 10.507c-0.026-1.106-0.233-2.201-0.613-3.24-0.339-0.889-0.867-1.694-1.547-2.36-0.66-0.683-1.467-1.208-2.36-1.533-1.037-0.392-2.132-0.604-3.24-0.627-1.413-0.080-1.867-0.080-5.493-0.080s-4.080 0-5.493 0.080c-1.108 0.023-2.204 0.235-3.24 0.627-0.891 0.329-1.697 0.853-2.36 1.533-0.683 0.66-1.208 1.467-1.533 2.36-0.392 1.036-0.604 2.132-0.627 3.24-0.080 1.413-0.080 1.867-0.080 5.493s0 4.080 0.080 5.493c0.023 1.108 0.235 2.203 0.627 3.24 0.326 0.893 0.85 1.7 1.533 2.36 0.663 0.681 1.469 1.204 2.36 1.533 1.037 0.392 2.132 0.604 3.24 0.627 1.413 0.080 1.867 0.080 5.493 0.080s4.080 0 5.493-0.080c1.108-0.023 2.203-0.235 3.24-0.627 0.893-0.326 1.7-0.85 2.36-1.533 0.683-0.663 1.211-1.469 1.547-2.36 0.38-1.039 0.587-2.134 0.613-3.24 0-1.413 0.080-1.867 0.080-5.493s0-4.080-0.080-5.493zM26.853 21.333c-0.010 0.846-0.163 1.685-0.453 2.48-0.213 0.58-0.555 1.105-1 1.533-0.433 0.441-0.956 0.782-1.533 1-0.795 0.29-1.634 0.444-2.48 0.453-1.333 0.067-1.827 0.080-5.333 0.080s-4 0-5.333-0.080c-0.879 0.017-1.754-0.119-2.587-0.4-0.552-0.229-1.051-0.57-1.467-1-0.443-0.428-0.78-0.953-0.987-1.533-0.326-0.807-0.506-1.664-0.533-2.533 0-1.333-0.080-1.827-0.080-5.333s0-4 0.080-5.333c0.006-0.865 0.164-1.723 0.467-2.533 0.235-0.563 0.595-1.064 1.053-1.467 0.405-0.458 0.906-0.823 1.467-1.067 0.813-0.293 1.669-0.447 2.533-0.453 1.333 0 1.827-0.080 5.333-0.080s4 0 5.333 0.080c0.846 0.010 1.685 0.163 2.48 0.453 0.606 0.225 1.15 0.59 1.587 1.067 0.437 0.41 0.778 0.91 1 1.467 0.296 0.812 0.45 1.669 0.453 2.533 0.067 1.333 0.080 1.827 0.080 5.333s-0.013 4-0.080 5.333zM16 9.16c-1.352 0.003-2.673 0.406-3.796 1.159s-1.998 1.822-2.513 3.072c-0.516 1.25-0.649 2.625-0.384 3.951s0.918 2.543 1.875 3.499c0.957 0.955 2.176 1.605 3.502 1.868s2.701 0.127 3.95-0.391c1.249-0.518 2.317-1.395 3.067-2.519s1.152-2.446 1.152-3.799c0.002-0.9-0.174-1.791-0.518-2.623s-0.849-1.587-1.486-2.223c-0.637-0.636-1.393-1.139-2.225-1.482s-1.724-0.517-2.624-0.513zM16 20.44c-0.878 0-1.737-0.26-2.467-0.748s-1.299-1.181-1.635-1.993c-0.336-0.811-0.424-1.704-0.253-2.565s0.594-1.652 1.215-2.273c0.621-0.621 1.412-1.044 2.273-1.215s1.754-0.083 2.565 0.253c0.811 0.336 1.505 0.905 1.993 1.635s0.748 1.589 0.748 2.467c0 0.583-0.115 1.16-0.338 1.699s-0.55 1.028-0.962 1.44c-0.412 0.412-0.902 0.739-1.441 0.962s-1.116 0.338-1.699 0.338z"></path>
</symbol>
<symbol id="icon-play" viewBox="0 0 32 32">
<path fill="#fff" style="fill: var(--color2, #fff)" d="M20.267 16.4l-6.4 3.867v-7.733l6.4 3.867z"></path>
</symbol>
<symbol id="icon-quotes" viewBox="0 0 38 32">
<path fill="#fff" style="fill: var(--color2, #fff)" d="M10.331 18.286c1.922 0 3.444 0.642 4.565 1.925 1.201 1.203 1.802 2.807 1.802 4.812 0 2.165-0.721 3.89-2.162 5.173-1.361 1.203-3.243 1.804-5.646 1.804-2.803 0-5.005-1.083-6.607-3.248-1.522-2.165-2.282-5.253-2.282-9.263 0-3.609 0.801-6.937 2.403-9.985 1.602-3.128 4.004-6.256 7.208-9.383 0.080-0.080 0.2-0.12 0.36-0.12 0.24 0 0.44 0.12 0.601 0.361s0.16 0.441 0 0.602c-3.924 4.010-5.886 8.742-5.886 14.196 0 2.246 0.4 3.89 1.201 4.932 0.721-1.203 2.202-1.805 4.445-1.805zM31.233 18.286c1.922 0 3.444 0.642 4.565 1.925 1.201 1.203 1.802 2.807 1.802 4.812 0 2.165-0.721 3.89-2.162 5.173-1.361 1.203-3.243 1.804-5.646 1.804-2.803 0-5.005-1.083-6.607-3.248-1.522-2.165-2.282-5.253-2.282-9.263 0-3.609 0.801-6.937 2.403-9.985 1.602-3.128 4.004-6.256 7.208-9.383 0.080-0.080 0.2-0.12 0.36-0.12 0.24 0 0.44 0.12 0.601 0.361s0.16 0.441 0 0.602c-3.924 4.010-5.886 8.742-5.886 14.196 0 2.246 0.4 3.89 1.201 4.932 0.721-1.203 2.202-1.805 4.445-1.805z"></path>
</symbol>
<symbol id="icon-spoon" viewBox="0 0 128 32">
<path fill="#dcca87" style="fill: var(--color3, #dcca87)" d="M107.204 30.4c11.467 0 20.795-6.46 20.795-14.4s-9.328-14.4-20.795-14.4c-10.846 0-19.774 5.78-20.709 13.126h-14.967v-3.029h-71.529v8.606h71.53v-3.029h14.967c0.935 7.346 9.863 13.126 20.709 13.126zM68.767 17.755h-66.005v-3.51h66.005v3.51zM89.171 16c0-6.535 8.090-11.851 18.034-11.851s18.034 5.316 18.034 11.851c0 6.535-8.090 11.852-18.034 11.852s-18.034-5.317-18.034-11.852z"></path>
</symbol>
<symbol id="icon-twit" viewBox="0 0 32 32">
<path fill="#f5efdb" style="fill: var(--color1, #f5efdb)" d="M30.655 5.267c0-0.236-0.062-0.467-0.18-0.67s-0.289-0.372-0.493-0.489c-0.205-0.116-0.437-0.177-0.672-0.174s-0.466 0.067-0.669 0.188c-0.78 0.465-1.621 0.82-2.497 1.057-1.252-1.074-2.849-1.662-4.499-1.656-1.81 0.002-3.548 0.707-4.848 1.967s-2.059 2.975-2.117 4.784c-3.568-0.569-6.802-2.431-9.085-5.232-0.138-0.167-0.313-0.298-0.512-0.383s-0.415-0.12-0.631-0.104c-0.216 0.018-0.423 0.088-0.606 0.204s-0.334 0.275-0.441 0.463c-0.55 0.96-0.866 2.036-0.922 3.14s0.149 2.207 0.599 3.218l-0.003 0.003c-0.202 0.125-0.369 0.299-0.485 0.506s-0.176 0.441-0.175 0.679c-0.002 0.196 0.009 0.392 0.035 0.586 0.136 1.678 0.88 3.248 2.091 4.417-0.082 0.157-0.132 0.328-0.148 0.504s0.005 0.354 0.059 0.522c0.528 1.645 1.651 3.035 3.15 3.896-1.522 0.589-3.166 0.794-4.786 0.598-0.3-0.038-0.604 0.028-0.862 0.185s-0.454 0.398-0.558 0.683c-0.103 0.284-0.107 0.595-0.010 0.881s0.288 0.531 0.542 0.695c2.787 1.795 6.032 2.749 9.346 2.749 3.759 0.042 7.427-1.159 10.432-3.417s5.181-5.446 6.187-9.068c0.471-1.578 0.711-3.215 0.714-4.862 0-0.087 0-0.177-0.001-0.267 0.696-0.751 1.235-1.633 1.586-2.595s0.506-1.984 0.457-3.007zM26.246 9.55c-0.22 0.26-0.332 0.596-0.311 0.936 0.013 0.22 0.012 0.441 0.012 0.65-0.003 1.391-0.207 2.775-0.605 4.108-0.822 3.082-2.655 5.799-5.204 7.715s-5.668 2.923-8.857 2.856c-1.146 0-2.287-0.134-3.401-0.401 1.421-0.458 2.749-1.164 3.923-2.085 0.216-0.17 0.375-0.403 0.453-0.667s0.074-0.546-0.014-0.807-0.254-0.488-0.477-0.651c-0.222-0.163-0.489-0.252-0.764-0.257-1.108-0.017-2.166-0.464-2.952-1.246 0.199-0.038 0.397-0.085 0.594-0.141 0.288-0.082 0.54-0.259 0.716-0.501s0.264-0.537 0.252-0.836-0.125-0.586-0.32-0.813c-0.195-0.227-0.461-0.383-0.754-0.441-0.643-0.127-1.249-0.401-1.769-0.8s-0.942-0.913-1.231-1.501c0.241 0.033 0.483 0.053 0.727 0.061 0.289 0.004 0.571-0.083 0.807-0.25s0.412-0.405 0.504-0.678c0.088-0.276 0.083-0.574-0.013-0.847s-0.279-0.508-0.521-0.668c-0.586-0.391-1.067-0.921-1.398-1.543s-0.503-1.316-0.5-2.021c0-0.089 0.003-0.177 0.008-0.264 2.988 2.787 6.864 4.43 10.945 4.639 0.206 0.008 0.411-0.031 0.6-0.113s0.356-0.207 0.49-0.364c0.132-0.159 0.226-0.346 0.274-0.546s0.048-0.41 0.001-0.611c-0.076-0.318-0.115-0.644-0.116-0.971 0.001-1.141 0.455-2.234 1.261-3.041s1.9-1.26 3.041-1.261c0.587-0.002 1.168 0.119 1.706 0.353s1.022 0.577 1.421 1.008c0.154 0.165 0.347 0.289 0.562 0.358s0.444 0.083 0.666 0.039c0.548-0.107 1.088-0.25 1.616-0.43-0.36 0.737-0.821 1.421-1.368 2.032z"></path>
</symbol>
</defs>
</svg>
